<svg xmlns="http://www.w3.org/2000/svg" xml:space="preserve" viewBox="0 0 256 256">
    <style>
        #doodle {
            fill: black;
        }
        @media (prefers-color-scheme: dark) {
            #doodle {
                fill: #eb2bbe;
            }
        }
      </style>
    <path id="doodle"
        d="M33.3 61.2c9.1-9.1 18.2-18.2 22-15.6 6.5 2.6 0 13-3.9 19.5-3.9 5.2-37.6 50.6-37.6 81.7 0 16.9 6.5 29.8 16.9 38.9 10.4 7.8 22 9.1 33.7 6.5 14.3-3.9 24.6-18.2 40.2-36.3 15.6-19.5 36.3-44.1 53.2-44.1 20.8 0 20.8 13 23.3 23.3-49.2 7.8-70 48-70 70.1s18.2 40.2 41.5 40.2c20.8 0 55.8-16.9 61-79.1H246v-32.4h-32.4c-2.6-20.8-14.3-54.5-51.9-54.5-28.5 0-54.5 24.6-63.5 36.3-7.8 9.1-27.2 32.4-29.8 35-3.9 3.9-9.1 10.4-14.3 10.4-5.2 0-9.1-10.4-5.2-24.6 5.2-14.3 18.2-37.6 24.6-45.4 9.1-15.6 15.6-25.9 15.6-42.8 0-28.5-20.8-37.6-32.4-37.6-16.9 0-31.1 13-35 16.9L10 39.3l23.3 21.9zm120.6 151.7c-3.9 0-9.1-3.9-9.1-9.1 0-7.8 9.1-28.5 37.6-36.3-5.1 35.1-19.4 45.4-28.5 45.4z" />
</svg>