<svg width="100mm" height="100mm" viewBox="0 0 100 100" xmlns="http://www.w3.org/2000/svg">
  <g style="fill:#fcf">
    <path style="display:inline;fill:#fcf;fill-opacity:1;stroke:#fcf;stroke-width:.0120559;stroke-linecap:round;stroke-dasharray:none;stroke-opacity:1" d="M-.171 3.45a.177.177 0 0 0-.061.01.197.197 0 0 0-.081.057.235.235 0 0 0-.046.087.281.281 0 0 0-.012.096c.004.067.03.127.058.172a.69.69 0 0 0 .107.13.518.518 0 0 0 .096.077c.034.018.057-.005.036-.04-.011-.019-.038-.05-.076-.094-.027-.031-.063-.074-.09-.12a.302.302 0 0 1-.043-.13.196.196 0 0 1 .007-.065.151.151 0 0 1 .028-.054.12.12 0 0 1 .045-.036.099.099 0 0 1 .054-.007.118.118 0 0 1 .056.027.233.233 0 0 1 .046.054l.035.056.051-.054c.022-.024.034-.039.057-.053a.135.135 0 0 1 .072-.023.105.105 0 0 1 .1.086.12.12 0 0 1 0 .049c-.004.018-.012.036-.018.051-.065.13-.158.195-.183.216-.034.027-.02.056.021.04a.49.49 0 0 0 .254-.29.194.194 0 0 0-.035-.157.176.176 0 0 0-.14-.068.164.164 0 0 0-.097.034.384.384 0 0 0-.068.064.284.284 0 0 0-.048-.062.19.19 0 0 0-.087-.05.166.166 0 0 0-.038-.003z" transform="matrix(98.95996 0 0 98.95996 51.227 -322.825)"/>
  </g>
</svg>