<?xml version="1.0" encoding="UTF-8" standalone="no"?>
<svg
   width="307.00961mm"
   height="141.85512mm"
   viewBox="0 0 307.00961 141.85512"
   version="1.1"
   id="svg17"
   sodipodi:docname="indieweb__logo.svg"
   inkscape:version="1.4 (e7c3feb1, 2024-10-09)"
   inkscape:export-filename="indieweb__logo.svg"
   inkscape:export-xdpi="96"
   inkscape:export-ydpi="96"
   xmlns:inkscape="http://www.inkscape.org/namespaces/inkscape"
   xmlns:sodipodi="http://sodipodi.sourceforge.net/DTD/sodipodi-0.dtd"
   xmlns="http://www.w3.org/2000/svg"
   xmlns:svg="http://www.w3.org/2000/svg">
  <defs
     id="defs17" />
  <sodipodi:namedview
     id="namedview17"
     pagecolor="#ffffff"
     bordercolor="#000000"
     borderopacity="0.25"
     inkscape:showpageshadow="2"
     inkscape:pageopacity="0.0"
     inkscape:pagecheckerboard="0"
     inkscape:deskcolor="#d1d1d1"
     inkscape:document-units="mm"
     inkscape:zoom="0.36273881"
     inkscape:cx="683.68753"
     inkscape:cy="727.79641"
     inkscape:window-width="1728"
     inkscape:window-height="1051"
     inkscape:window-x="0"
     inkscape:window-y="38"
     inkscape:window-maximized="1"
     inkscape:current-layer="g17">
    <inkscape:page
       x="0"
       y="0"
       width="307.00961"
       height="141.85512"
       id="page17"
       margin="0"
       bleed="0" />
  </sodipodi:namedview>
  <g
     style="display:inline;fill:#ffccff"
     id="g17"
     transform="translate(-95.122227,-83.065729)">
    <path
       style="display:inline;fill:#ffccff;fill-opacity:1;stroke:#ffccff;stroke-width:0.00315421;stroke-linecap:round;stroke-dasharray:none;stroke-opacity:1"
       d="M 2.256,0.684 A 0.046,0.046 0 0 0 2.24,0.687 0.052,0.052 0 0 0 2.22,0.702 0.061,0.061 0 0 0 2.207,0.724 0.074,0.074 0 0 0 2.204,0.749 0.098,0.098 0 0 0 2.219,0.794 0.18,0.18 0 0 0 2.273,0.849 C 2.281,0.853 2.287,0.847 2.282,0.838 L 2.262,0.813 C 2.255,0.805 2.245,0.794 2.238,0.782 A 0.079,0.079 0 0 1 2.228,0.748 V 0.73 A 0.04,0.04 0 0 1 2.236,0.716 0.032,0.032 0 0 1 2.248,0.706 0.026,0.026 0 0 1 2.262,0.705 0.03,0.03 0 0 1 2.277,0.712 0.06,0.06 0 0 1 2.289,0.726 L 2.299,0.74 2.311,0.726 2.326,0.712 a 0.035,0.035 0 0 1 0.02,-0.005 c 0.003,0 0.007,0 0.01,0.003 a 0.028,0.028 0 0 1 0.015,0.02 v 0.012 c 0,0.004 -0.003,0.01 -0.004,0.013 C 2.35,0.789 2.325,0.806 2.319,0.812 2.309,0.819 2.313,0.826 2.324,0.822 A 0.128,0.128 0 0 0 2.391,0.746 0.05,0.05 0 0 0 2.381,0.706 0.046,0.046 0 0 0 2.345,0.687 0.043,0.043 0 0 0 2.32,0.697 0.1,0.1 0 0 0 2.302,0.713 0.074,0.074 0 0 0 2.289,0.697 0.05,0.05 0 0 0 2.266,0.684 0.044,0.044 0 0 0 2.256,0.683 Z"
       transform="matrix(98.95996,0,0,98.95996,71.448,53.282)"
       id="path1" />
    <path
       style="font-size:0.935148px;font-family:'Send Flowers';-inkscape-font-specification:'Send Flowers';text-align:center;text-anchor:middle;fill:#ffccff;stroke-width:0.245276"
       d="M 1.527,1.505 C 1.47,1.505 1.441,1.47 1.441,1.401 V 1.376 L 1.446,1.352 A 1.528,1.528 0 0 1 1.483,1.229 C 1.507,1.162 1.513,1.155 1.523,1.154 1.533,1.153 1.539,1.159 1.539,1.169 A 0.598,0.598 0 0 0 1.472,1.403 c 0,0.046 0.019,0.07 0.055,0.07 0.054,0 0.1,-0.056 0.138,-0.166 L 1.685,1.242 1.705,1.187 A 0.015,0.015 0 0 1 1.718,1.18 c 0.014,0 0.021,0.006 0.019,0.016 L 1.727,1.225 1.701,1.321 A 0.421,0.421 0 0 0 1.687,1.409 c 0,0.039 0.016,0.058 0.047,0.058 0.045,0 0.088,-0.033 0.13,-0.098 A 0.323,0.323 0 0 0 1.921,1.199 0.147,0.147 0 0 0 1.9,1.114 C 1.886,1.096 1.868,1.084 1.855,1.084 1.841,1.084 1.82,1.094 1.82,1.116 1.82,1.134 1.83,1.141 1.842,1.147 1.848,1.15 1.855,1.153 1.856,1.16 1.857,1.17 1.851,1.175 1.841,1.176 A 0.048,0.048 0 0 1 1.804,1.16 0.053,0.053 0 0 1 1.789,1.123 c 0,-0.02 0.006,-0.035 0.018,-0.046 A 0.067,0.067 0 0 1 1.854,1.059 c 0.026,0 0.048,0.011 0.067,0.033 0.021,0.025 0.032,0.06 0.032,0.106 0,0.061 -0.019,0.124 -0.058,0.187 C 1.849,1.461 1.793,1.499 1.727,1.499 1.68,1.499 1.656,1.468 1.655,1.405 c -0.037,0.067 -0.08,0.1 -0.128,0.1 z m 0.6,0.002 A 0.136,0.136 0 0 1 2.017,1.463 0.167,0.167 0 0 1 1.979,1.349 c 0,-0.07 0.024,-0.126 0.07,-0.17 A 0.19,0.19 0 0 1 2.183,1.121 c 0.026,0 0.046,0.006 0.062,0.02 0.016,0.012 0.024,0.03 0.024,0.054 0,0.037 -0.02,0.068 -0.063,0.091 A 0.26,0.26 0 0 1 2.016,1.307 1.493,1.493 0 0 0 2.012,1.349 c 0,0.038 0.01,0.07 0.03,0.094 0.019,0.023 0.047,0.035 0.083,0.035 0.066,0 0.12,-0.03 0.158,-0.092 A 0.19,0.19 0 0 1 2.296,1.368 C 2.3,1.363 2.304,1.361 2.31,1.361 c 0.005,0 0.009,0.004 0.009,0.011 0,0.008 -0.002,0.011 -0.005,0.016 A 0.255,0.255 0 0 1 2.233,1.475 0.197,0.197 0 0 1 2.126,1.507 Z M 2.077,1.285 c 0.04,0 0.075,-0.008 0.106,-0.024 0.037,-0.017 0.055,-0.04 0.055,-0.068 0,-0.027 -0.02,-0.04 -0.057,-0.04 A 0.142,0.142 0 0 0 2.085,1.191 0.215,0.215 0 0 0 2.025,1.276 0.141,0.141 0 0 0 2.077,1.285 Z M 2.803,0.693 A 0.274,0.274 0 0 0 2.548,0.723 C 2.48,0.77 2.43,0.879 2.4,0.954 2.331,0.9 2.314,0.853 2.297,0.872 2.279,0.892 2.36,0.958 2.387,0.98 2.381,1.002 2.255,1.396 2.454,1.494 2.54,1.527 2.637,1.495 2.691,1.401 A 0.208,0.208 0 0 0 2.717,1.284 0.145,0.145 0 0 0 2.662,1.18 0.12,0.12 0 0 0 2.542,1.157 0.102,0.102 0 0 0 2.492,1.194 0.096,0.096 0 0 0 2.474,1.254 c 0,0.02 0.003,0.034 0.015,0.05 C 2.501,1.32 2.531,1.339 2.537,1.322 2.54,1.313 2.534,1.314 2.515,1.295 2.502,1.282 2.501,1.267 2.5,1.254 2.5,1.242 2.506,1.2 2.555,1.182 A 0.097,0.097 0 0 1 2.642,1.2 0.13,0.13 0 0 1 2.687,1.288 0.173,0.173 0 0 1 2.66,1.385 C 2.585,1.518 2.47,1.467 2.463,1.464 2.301,1.378 2.408,1.012 2.413,0.996 2.483,1.043 2.56,1.069 2.645,1.073 2.837,1.083 2.905,0.96 2.915,0.916 A 0.198,0.198 0 0 0 2.803,0.693 Z M 2.79,0.72 C 2.853,0.748 2.907,0.823 2.885,0.907 2.875,0.949 2.829,1.049 2.644,1.04 A 0.42,0.42 0 0 1 2.426,0.97 C 2.454,0.899 2.505,0.79 2.566,0.749 A 0.251,0.251 0 0 1 2.79,0.72 Z"
       transform="matrix(98.95996,0,0,98.95996,71.448,53.282)"
       id="path2" />
    <path
       style="font-size:0.388889px;font-family:'Send Flowers';-inkscape-font-specification:'Send Flowers';text-align:center;text-anchor:middle;display:inline;fill:#ffccff;stroke-width:0.0165474;stroke-linecap:round;stroke-linejoin:bevel"
       d="m 1.8,0.665 c -0.016,0 -0.024,-0.008 -0.024,-0.024 0,-0.016 0.008,-0.024 0.024,-0.024 0.016,0 0.024,0.008 0.024,0.024 0,0.016 -0.008,0.024 -0.024,0.024 z m -1.099,0 c -0.016,0 -0.024,-0.008 -0.024,-0.024 0,-0.016 0.008,-0.024 0.024,-0.024 0.016,0 0.024,0.008 0.024,0.024 0,0.016 -0.008,0.024 -0.024,0.024 z M 0.669,1.035 A 0.07,0.07 0 0 1 0.616,1.012 0.082,0.082 0 0 1 0.594,0.954 c 0,-0.028 0.011,-0.065 0.032,-0.11 A 0.285,0.285 0 0 0 0.658,0.732 c 0,-0.01 0.005,-0.015 0.016,-0.015 0.01,0 0.016,0.008 0.016,0.024 A 0.29,0.29 0 0 1 0.658,0.845 0.29,0.29 0 0 0 0.626,0.951 c 0,0.014 0.005,0.026 0.013,0.037 0.01,0.01 0.02,0.015 0.034,0.015 A 0.093,0.093 0 0 0 0.736,0.98 0.288,0.288 0 0 0 0.787,0.92 0.146,0.146 0 0 1 0.803,0.898 C 0.807,0.895 0.81,0.893 0.814,0.893 c 0.008,0 0.012,0.003 0.012,0.01 0,0.003 -0.002,0.01 -0.007,0.02 A 0.284,0.284 0 0 1 0.754,1.003 0.128,0.128 0 0 1 0.669,1.036 Z M 1.071,1.037 A 0.075,0.075 0 0 1 1.017,1.018 0.069,0.069 0 0 1 0.997,0.966 C 0.997,0.958 1,0.945 1.004,0.927 A 0.646,0.646 0 0 1 1.022,0.87 1.236,1.236 0 0 0 1.054,0.757 V 0.74 C 1.054,0.705 1.04,0.687 1.01,0.687 0.967,0.687 0.926,0.72 0.887,0.787 A 1.112,1.112 0 0 0 0.804,0.977 L 0.786,1.021 C 0.783,1.028 0.779,1.031 0.774,1.031 A 0.017,0.017 0 0 1 0.762,1.026 C 0.758,1.02 0.756,1.017 0.756,1.013 c 0,-0.002 0.01,-0.032 0.032,-0.09 a 0.835,0.835 0 0 0 0.06,-0.26 c 0,-0.011 0.006,-0.017 0.017,-0.017 0.006,0 0.01,0.004 0.015,0.013 A 0.053,0.053 0 0 1 0.885,0.68 0.27,0.27 0 0 1 0.877,0.741 C 0.919,0.683 0.965,0.654 1.014,0.654 c 0.052,0 0.078,0.028 0.078,0.084 A 0.573,0.573 0 0 1 1.054,0.884 0.825,0.825 0 0 0 1.04,0.925 0.171,0.171 0 0 0 1.035,0.967 c 0,0.01 0.002,0.02 0.006,0.028 0.005,0.007 0.014,0.01 0.027,0.01 A 0.096,0.096 0 0 0 1.112,0.993 0.242,0.242 0 0 0 1.204,0.899 0.017,0.017 0 0 1 1.217,0.893 c 0.008,0 0.011,0.004 0.011,0.013 L 1.227,0.914 A 0.25,0.25 0 0 1 1.127,1.021 0.117,0.117 0 0 1 1.071,1.037 Z M 1.554,1.044 C 1.502,1.044 1.469,1.014 1.457,0.953 1.413,1.007 1.364,1.035 1.31,1.035 A 0.1,0.1 0 0 1 1.224,0.99 0.16,0.16 0 0 1 1.196,0.895 c 0,-0.065 0.026,-0.122 0.077,-0.17 A 0.21,0.21 0 0 1 1.417,0.661 0.08,0.08 0 0 1 1.477,0.682 C 1.519,0.525 1.57,0.447 1.629,0.447 c 0.033,0 0.05,0.016 0.05,0.05 a 0.57,0.57 0 0 1 -0.08,0.21 C 1.593,0.721 1.579,0.744 1.559,0.779 L 1.482,0.913 A 0.142,0.142 0 0 0 1.503,0.988 0.06,0.06 0 0 0 1.555,1.013 0.1,0.1 0 0 0 1.625,0.984 0.288,0.288 0 0 0 1.677,0.919 0.118,0.118 0 0 1 1.69,0.903 C 1.695,0.897 1.7,0.895 1.704,0.895 c 0.004,0 0.006,0 0.007,0.003 A 0.012,0.012 0 0 1 1.713,0.905 0.04,0.04 0 0 1 1.711,0.915 0.031,0.031 0 0 1 1.709,0.922 0.31,0.31 0 0 1 1.671,0.978 0.223,0.223 0 0 1 1.618,1.025 0.118,0.118 0 0 1 1.554,1.043 Z M 1.482,0.848 A 48.912,48.912 0 0 1 1.575,0.684 0.649,0.649 0 0 0 1.647,0.507 V 0.5 C 1.647,0.486 1.642,0.478 1.631,0.478 1.614,0.478 1.596,0.494 1.575,0.524 A 0.542,0.542 0 0 0 1.51,0.678 0.836,0.836 0 0 0 1.482,0.848 Z M 1.311,1.003 c 0.053,0 0.1,-0.032 0.14,-0.096 L 1.448,0.89 V 0.873 A 0.749,0.749 0 0 1 1.453,0.796 0.082,0.082 0 0 1 1.43,0.8 C 1.413,0.8 1.404,0.795 1.404,0.785 1.404,0.773 1.41,0.767 1.421,0.767 l 0.006,0.001 h 0.005 c 0.016,0 0.025,-0.005 0.027,-0.015 L 1.466,0.73 C 1.464,0.707 1.446,0.695 1.415,0.695 A 0.172,0.172 0 0 0 1.285,0.758 0.2,0.2 0 0 0 1.228,0.895 c 0,0.03 0.007,0.054 0.02,0.074 A 0.072,0.072 0 0 0 1.311,1.003 Z M 1.762,1.036 A 0.07,0.07 0 0 1 1.709,1.012 0.082,0.082 0 0 1 1.688,0.954 c 0,-0.028 0.01,-0.065 0.031,-0.11 A 0.285,0.285 0 0 0 1.751,0.733 c 0,-0.01 0.006,-0.015 0.016,-0.015 0.01,0 0.016,0.008 0.016,0.024 A 0.29,0.29 0 0 1 1.751,0.846 0.29,0.29 0 0 0 1.719,0.952 c 0,0.014 0.005,0.026 0.014,0.037 0.009,0.01 0.02,0.015 0.033,0.015 A 0.093,0.093 0 0 0 1.83,0.98 0.288,0.288 0 0 0 1.88,0.92 0.146,0.146 0 0 1 1.896,0.898 C 1.9,0.895 1.904,0.893 1.907,0.893 c 0.009,0 0.013,0.003 0.013,0.01 0,0.003 -0.003,0.01 -0.008,0.02 A 0.284,0.284 0 0 1 1.848,1.003 0.128,0.128 0 0 1 1.762,1.036 Z M 2.035,1.041 A 0.136,0.136 0 0 1 1.926,0.997 0.167,0.167 0 0 1 1.888,0.883 c 0,-0.07 0.023,-0.126 0.07,-0.17 A 0.19,0.19 0 0 1 2.092,0.655 c 0.025,0 0.046,0.007 0.061,0.02 0.017,0.012 0.025,0.03 0.025,0.054 0,0.037 -0.022,0.068 -0.064,0.092 A 0.26,0.26 0 0 1 1.925,0.841 1.515,1.515 0 0 0 1.92,0.883 c 0,0.038 0.01,0.07 0.03,0.094 0.019,0.024 0.047,0.035 0.084,0.035 0.066,0 0.118,-0.03 0.158,-0.092 0.014,-0.022 0.019,-0.024 0.026,-0.024 0.006,0 0.01,0.003 0.01,0.01 0,0.016 -0.034,0.07 -0.087,0.104 A 0.197,0.197 0 0 1 2.035,1.041 Z M 1.985,0.82 c 0.04,0 0.075,-0.008 0.107,-0.024 0.036,-0.017 0.054,-0.04 0.054,-0.068 0,-0.027 -0.02,-0.04 -0.057,-0.04 A 0.142,0.142 0 0 0 1.993,0.726 0.215,0.215 0 0 0 1.933,0.811 0.141,0.141 0 0 0 1.985,0.82 Z"
       transform="matrix(98.95996,0,0,98.95996,71.448,53.282)"
       id="path3" />
    <g
       style="fill:#ffffcc;stroke:#ffffcc"
       transform="matrix(98.95996,0,0,98.95996,71.448,53.282)"
       id="g16">
      <path
         style="fill:#ffffcc;fill-opacity:1;stroke:#ffffcc;stroke-width:0.0166464;stroke-linecap:round;stroke-miterlimit:1;stroke-dasharray:none;stroke-opacity:1"
         transform="matrix(0.68252,0,0,0.68252,0.496,0.384)"
         d="M 1.201,1.178 1.369,1.173 M 1.289,1.112 1.258,1.219"
         id="path4" />
      <path
         style="fill:#ffffcc;fill-opacity:1;stroke:#ffffcc;stroke-width:0.0166464;stroke-linecap:round;stroke-miterlimit:1;stroke-dasharray:none;stroke-opacity:1"
         transform="matrix(0.4328,0,0,0.4328,0.82,-0.007)"
         d="M 1.201,1.178 1.369,1.173 M 1.289,1.112 1.258,1.219"
         id="path5" />
      <path
         style="fill:#ffffcc;fill-opacity:1;stroke:#ffffcc;stroke-width:0.0166464;stroke-linecap:round;stroke-miterlimit:1;stroke-dasharray:none;stroke-opacity:1"
         transform="matrix(0.79968,0,0,0.84114,0.601,0.122)"
         d="M 2.984,0.83 3.17,0.818 M 3.084,0.751 3.047,0.871"
         id="path6" />
      <path
         style="fill:#ffffcc;fill-opacity:1;stroke:#ffffcc;stroke-width:0.0166464;stroke-linecap:round;stroke-miterlimit:1;stroke-dasharray:none;stroke-opacity:1"
         transform="matrix(0.4328,0,0,0.4328,1.72,0.532)"
         d="M 1.201,1.178 1.369,1.173 M 1.289,1.112 1.258,1.219"
         id="path7" />
      <path
         style="fill:#ffffcc;fill-opacity:1;stroke:#ffffcc;stroke-width:0.0166464;stroke-linecap:round;stroke-miterlimit:1;stroke-dasharray:none;stroke-opacity:1"
         transform="matrix(0.4328,0,0,0.4328,-0.022,0.33)"
         d="M 1.201,1.178 1.369,1.173 M 1.289,1.112 1.258,1.219"
         id="path8" />
      <path
         style="fill:#ffffcc;fill-opacity:1;stroke:#ffffcc;stroke-width:0.0166464;stroke-linecap:round;stroke-miterlimit:1;stroke-dasharray:none;stroke-opacity:1"
         transform="matrix(0.6541,0,0,0.6541,2.01,0.495)"
         d="M 1.201,1.178 1.369,1.173 M 1.289,1.112 1.258,1.219"
         id="path9" />
      <ellipse
         style="fill:#ffffcc;fill-opacity:1;stroke:#ffffcc;stroke-width:0.0166464;stroke-linecap:round;stroke-miterlimit:1;stroke-dasharray:none;stroke-opacity:1"
         cx="1.2539999"
         cy="1.261"
         rx="0.0099999998"
         ry="0.0060000001"
         id="ellipse9" />
      <ellipse
         style="fill:#ffffcc;fill-opacity:1;stroke:#ffffcc;stroke-width:0.00751831;stroke-linecap:round;stroke-miterlimit:1;stroke-dasharray:none;stroke-opacity:1"
         cx="1.37"
         cy="1.312"
         rx="0.0040000002"
         ry="0.003"
         id="ellipse10" />
      <ellipse
         style="fill:#ffffcc;fill-opacity:1;stroke:#ffffcc;stroke-width:0.00751831;stroke-linecap:round;stroke-miterlimit:1;stroke-dasharray:none;stroke-opacity:1"
         cx="2.4649999"
         cy="0.68800002"
         rx="0.0040000002"
         ry="0.003"
         id="ellipse11" />
      <ellipse
         style="fill:#ffffcc;fill-opacity:1;stroke:#ffffcc;stroke-width:0.00983358;stroke-linecap:round;stroke-miterlimit:1;stroke-dasharray:none;stroke-opacity:1"
         cx="0.47600001"
         cy="0.78899997"
         rx="0.0060000001"
         ry="0.0040000002"
         id="ellipse12" />
      <ellipse
         style="fill:#ffffcc;fill-opacity:1;stroke:#ffffcc;stroke-width:0.0166464;stroke-linecap:round;stroke-miterlimit:1;stroke-dasharray:none;stroke-opacity:1"
         cx="2.97"
         cy="0.73799998"
         rx="0.0099999998"
         ry="0.0060000001"
         id="ellipse13" />
      <ellipse
         style="fill:#ffffcc;fill-opacity:1;stroke:#ffffcc;stroke-width:0.0149655;stroke-linecap:round;stroke-miterlimit:1;stroke-dasharray:none;stroke-opacity:1"
         cx="2.793"
         cy="1.158"
         rx="0.014"
         ry="0.0099999998"
         id="ellipse14" />
      <ellipse
         style="fill:#ffffcc;fill-opacity:1;stroke:#ffffcc;stroke-width:0.0107198;stroke-linecap:round;stroke-miterlimit:1;stroke-dasharray:none;stroke-opacity:1"
         cx="1.291"
         cy="0.55800003"
         rx="0.0080000004"
         ry="0.0060000001"
         id="ellipse15" />
      <ellipse
         style="fill:#ffffcc;fill-opacity:1;stroke:#ffffcc;stroke-width:0.0107198;stroke-linecap:round;stroke-miterlimit:1;stroke-dasharray:none;stroke-opacity:1"
         cx="2.3110001"
         cy="1.097"
         rx="0.0080000004"
         ry="0.0060000001"
         id="ellipse16" />
    </g>
  </g>
</svg>
