<svg viewBox="0 0 417.312 976.665" xmlns="http://www.w3.org/2000/svg">
  <path style="fill:#ffc;fill-opacity:1;stroke:#ffc;stroke-width:4.24944;stroke-linecap:round;stroke-miterlimit:1;stroke-dasharray:none;stroke-opacity:1" d="m267.345 705.865 42.887-1.276m-20.423-15.572-7.913 27.315"/>
  <path style="fill:#ffc;fill-opacity:1;stroke:#ffc;stroke-width:2.69466;stroke-linecap:round;stroke-miterlimit:1;stroke-dasharray:none;stroke-opacity:1" d="m131.64 624.273 27.195-.81m-12.95-9.874-5.019 17.32"/>
  <path style="fill:#ffc;fill-opacity:1;stroke:#ffc;stroke-width:5.10633;stroke-linecap:round;stroke-miterlimit:1;stroke-dasharray:none;stroke-opacity:1" d="m219.236 614.736 55.632-3.775m-25.723-21.079-11.066 37.753"/>
  <path style="fill:#ffc;fill-opacity:1;stroke:#ffc;stroke-width:2.69466;stroke-linecap:round;stroke-miterlimit:1;stroke-dasharray:none;stroke-opacity:1" d="m216.947 138.706 27.196-.81m-12.95-9.874-5.019 17.32M247.352 242.446l27.196-.81m-12.95-9.874-5.019 17.32"/>
  <path style="fill:#ffc;fill-opacity:1;stroke:#ffc;stroke-width:4.07251;stroke-linecap:round;stroke-miterlimit:1;stroke-dasharray:none;stroke-opacity:1" d="m235.622 417.839 41.101-1.223m-19.572-14.924-7.584 26.177"/>
  <ellipse style="fill:#ffc;fill-opacity:1;stroke:#ffc;stroke-width:6.22612;stroke-linecap:round;stroke-miterlimit:1;stroke-dasharray:none;stroke-opacity:1" cx="244.346" cy="733.263" rx="3.575" ry="2.384"/>
  <ellipse style="fill:#ffc;fill-opacity:1;stroke:#ffc;stroke-width:2.81201;stroke-linecap:round;stroke-miterlimit:1;stroke-dasharray:none;stroke-opacity:1" cx="287.438" cy="752.514" rx="1.615" ry="1.077"/>
  <ellipse style="fill:#ffc;fill-opacity:1;stroke:#ffc;stroke-width:2.81201;stroke-linecap:round;stroke-miterlimit:1;stroke-dasharray:none;stroke-opacity:1" cx="264.456" cy="295.916" rx="1.615" ry="1.077"/>
  <ellipse style="fill:#ffc;fill-opacity:1;stroke:#ffc;stroke-width:3.67797;stroke-linecap:round;stroke-miterlimit:1;stroke-dasharray:none;stroke-opacity:1" cx="239.309" cy="223.18" rx="2.112" ry="1.408"/>
  <ellipse style="fill:#ffc;fill-opacity:1;stroke:#ffc;stroke-width:6.22612;stroke-linecap:round;stroke-miterlimit:1;stroke-dasharray:none;stroke-opacity:1" cx="212.84" cy="584.065" rx="3.575" ry="2.384"/>
  <ellipse style="fill:#ffc;fill-opacity:1;stroke:#ffc;stroke-width:5.59742;stroke-linecap:round;stroke-miterlimit:1;stroke-dasharray:none;stroke-opacity:1" cx="234.581" cy="377.415" rx="5.082" ry="3.615"/>
  <ellipse style="fill:#ffc;fill-opacity:1;stroke:#ffc;stroke-width:4.00944;stroke-linecap:round;stroke-miterlimit:1;stroke-dasharray:none;stroke-opacity:1" cx="113.215" cy="644.776" rx="3.07" ry="2.302"/>
  <ellipse style="fill:#ffc;fill-opacity:1;stroke:#ffc;stroke-width:4.00944;stroke-linecap:round;stroke-miterlimit:1;stroke-dasharray:none;stroke-opacity:1" cx="243.21" cy="159.513" rx="3.07" ry="2.302"/>
  <path style="fill:#ffc;fill-opacity:1;stroke:#ffc;stroke-width:4.24944;stroke-linecap:round;stroke-miterlimit:1;stroke-dasharray:none;stroke-opacity:1" d="m202.53 487.424 42.886-1.276m-20.423-15.572-7.913 27.315"/>
  <path style="fill:#ffc;fill-opacity:1;stroke:#ffc;stroke-width:2.69466;stroke-linecap:round;stroke-miterlimit:1;stroke-dasharray:none;stroke-opacity:1" d="m169.185 684.783 27.196-.81m-12.95-9.874-5.019 17.32"/>
  <path style="fill:#ffc;fill-opacity:1;stroke:#ffc;stroke-width:5.10633;stroke-linecap:round;stroke-miterlimit:1;stroke-dasharray:none;stroke-opacity:1" d="m156.856 301.962 55.632-3.775m-25.723-21.079L175.7 314.861"/>
  <path style="fill:#ffc;fill-opacity:1;stroke:#ffc;stroke-width:2.69466;stroke-linecap:round;stroke-miterlimit:1;stroke-dasharray:none;stroke-opacity:1" d="m219.616 929.02 27.196-.809m-12.95-9.874-5.019 17.32"/>
  <path style="fill:#ffc;fill-opacity:1;stroke:#ffc;stroke-width:7.95456;stroke-linecap:round;stroke-miterlimit:1;stroke-dasharray:none;stroke-opacity:1" d="m87.88 762.759 80.28-2.39m-38.23-29.149-14.813 51.13"/>
  <path style="fill:#ffc;fill-opacity:1;stroke:#ffc;stroke-width:4.07251;stroke-linecap:round;stroke-miterlimit:1;stroke-dasharray:none;stroke-opacity:1" d="m217.266 830.18 41.101-1.222m-19.572-14.924-7.584 26.177"/>
  <ellipse style="fill:#ffc;fill-opacity:1;stroke:#ffc;stroke-width:6.22612;stroke-linecap:round;stroke-miterlimit:1;stroke-dasharray:none;stroke-opacity:1" cx="182.091" cy="512.26" rx="3.575" ry="2.384"/>
  <ellipse style="fill:#ffc;fill-opacity:1;stroke:#ffc;stroke-width:2.81201;stroke-linecap:round;stroke-miterlimit:1;stroke-dasharray:none;stroke-opacity:1" cx="225.183" cy="531.511" rx="1.615" ry="1.077"/>
  <ellipse style="fill:#ffc;fill-opacity:1;stroke:#ffc;stroke-width:2.81201;stroke-linecap:round;stroke-miterlimit:1;stroke-dasharray:none;stroke-opacity:1" cx="264.367" cy="116.114" rx="1.615" ry="1.077"/>
  <ellipse style="fill:#ffc;fill-opacity:1;stroke:#ffc;stroke-width:10.8573;stroke-linecap:round;stroke-miterlimit:1;stroke-dasharray:none;stroke-opacity:1" cx="64.137" cy="705.881" rx="6.235" ry="4.157"/>
  <ellipse style="fill:#ffc;fill-opacity:1;stroke:#ffc;stroke-width:6.22612;stroke-linecap:round;stroke-miterlimit:1;stroke-dasharray:none;stroke-opacity:1" cx="200.897" cy="331.428" rx="3.575" ry="2.384"/>
  <ellipse style="fill:#ffc;fill-opacity:1;stroke:#ffc;stroke-width:5.59742;stroke-linecap:round;stroke-miterlimit:1;stroke-dasharray:none;stroke-opacity:1" cx="203.965" cy="870.971" rx="5.082" ry="3.615"/>
  <ellipse style="fill:#ffc;fill-opacity:1;stroke:#ffc;stroke-width:4.00944;stroke-linecap:round;stroke-miterlimit:1;stroke-dasharray:none;stroke-opacity:1" cx="210.523" cy="662.38" rx="3.07" ry="2.302"/>
  <ellipse style="fill:#ffc;fill-opacity:1;stroke:#ffc;stroke-width:4.00944;stroke-linecap:round;stroke-miterlimit:1;stroke-dasharray:none;stroke-opacity:1" cx="267.332" cy="946.764" rx="3.07" ry="2.302"/>
  <path style="display:inline;fill:#ffc;fill-opacity:1;stroke:#ffc;stroke-width:.669054;stroke-linecap:round;stroke-dasharray:none;stroke-opacity:1" d="M230.58 51.51a9.805 9.805 0 0 0-3.36.719c-1.782.727-3.266 1.927-4.376 3.315-1.182 1.48-1.95 3.18-2.39 4.885a15.623 15.623 0 0 0-.425 5.336c.343 3.754 1.9 7.01 3.516 9.442 1.98 2.98 4.488 5.407 6.218 6.973 2.46 2.214 4.41 3.617 5.48 4.133 1.9.912 3.113-.408 1.89-2.301-.665-1.03-2.194-2.678-4.377-5.064-1.554-1.688-3.665-3.98-5.243-6.484-1.293-2.06-2.392-4.533-2.642-7.164a10.883 10.883 0 0 1 .256-3.586c.28-1.113.75-2.162 1.428-3.053.632-.848 1.472-1.59 2.45-2.054a5.475 5.475 0 0 1 3.009-.51c1.03.13 2.105.598 3.112 1.37.98.759 1.855 1.76 2.666 2.94l2.07 3.003 2.727-3.105c1.178-1.34 1.776-2.2 3.043-3.043 1.323-.876 2.68-1.36 3.944-1.378.87-.022 1.732.19 2.515.565a5.85 5.85 0 0 1 2.038 1.629 6.246 6.246 0 0 1 1.145 2.387c.225.922.25 1.842.106 2.677-.168 1-.555 2.01-.891 2.902-3.33 7.327-8.372 11.096-9.748 12.289-1.827 1.584-1.017 3.184 1.274 2.235 2.324-.966 7.816-4.432 12.217-12.908.498-.886 1-2.077 1.294-3.722a10.77 10.77 0 0 0-.18-4.562c-.363-1.424-1.03-2.843-2.041-4.067a9.777 9.777 0 0 0-3.583-2.712 9.194 9.194 0 0 0-4.353-.785c-2.16.154-3.623.798-5.295 2.068-1.412 1.08-2.583 2.385-3.646 3.715-.763-1.202-1.664-2.363-2.778-3.356-1.378-1.231-3.054-2.188-4.938-2.563a9.218 9.218 0 0 0-2.124-.168z"/>
</svg>